<svg xmlns="http://www.w3.org/2000/svg" viewBox="0 0 64 64" width="64" height="64">
  <defs>
    <linearGradient id="bgGrad" x1="0%" y1="0%" x2="100%" y2="100%">
      <stop offset="0%" stop-color="#0f172a"/>
      <stop offset="100%" stop-color="#1e293b"/>
    </linearGradient>
    <linearGradient id="iconGrad" x1="0%" y1="0%" x2="100%" y2="100%">
      <stop offset="0%" stop-color="#06b6d4"/>
      <stop offset="100%" stop-color="#3b82f6"/>
    </linearGradient>
    <filter id="glow" x="-20%" y="-20%" width="140%" height="140%">
      <feGaussianBlur stdDeviation="2" result="blur" />
      <feComposite in="SourceGraphic" in2="blur" operator="over" />
    </filter>
  </defs>
  <!-- Base Container -->
  <rect width="64" height="64" rx="16" fill="url(#bgGrad)"/>
  <rect x="2" y="2" width="60" height="60" rx="14" fill="none" stroke="url(#iconGrad)" stroke-width="2" stroke-opacity="0.6"/>
  
  <!-- Policy Document Icon -->
  <path d="M20 15h16l12 12v21a4 4 0 0 1-4 4H20a4 4 0 0 1-4-4V19a4 4 0 0 1 4-4z" fill="none" stroke="url(#iconGrad)" stroke-width="3" stroke-linecap="round" stroke-linejoin="round" filter="url(#glow)"/>
  <path d="M36 15v12h12" fill="none" stroke="url(#iconGrad)" stroke-width="3" stroke-linecap="round" stroke-linejoin="round"/>
  
  <!-- Policy Text Lines -->
  <line x1="24" y1="33" x2="36" y2="33" stroke="#e2e8f0" stroke-width="2.5" stroke-linecap="round"/>
  <line x1="24" y1="40" x2="40" y2="40" stroke="#e2e8f0" stroke-width="2.5" stroke-linecap="round"/>
  <line x1="24" y1="47" x2="31" y2="47" stroke="#06b6d4" stroke-width="2.5" stroke-linecap="round"/>
</svg>
